<svg width="231" height="217" viewBox="0 0 231 217" fill="none" xmlns="http://www.w3.org/2000/svg">
<path d="M199.5 80.2972L115.5 31.7997L31.5 80.2972L115.5 128.795L199.5 80.2972Z" fill="#4C98DF" stroke="black"/>
<path d="M5 68.7972L115.5 5M5 68.7972V145.297L115.5 211.797M5 68.7972L28.5 82.3649M115.5 132.594V211.797M115.5 132.594L28.5 82.3649M115.5 132.594L202.5 82.3649M226 68.7972L115.5 5M226 68.7972V145.297L115.5 211.797M226 68.7972L202.5 82.3649M115.5 5V32.1355M28.5 82.3649L115.5 32.1355M115.5 32.1355L202.5 82.3649" stroke="white" stroke-width="10" stroke-linejoin="round"/>
</svg>
